#!OML:ASF I:\golf\golf\golf 2\Subject 1\2002-09-07\Subject1.ASF
:FULLY-SPECIFIED
:DEGREES
375
root 1.08558 17.0793 -4.07261 27.5075 2.02058 -1.52366
lowerback 25.4289 5.80514 -3.75335
upperback 11.297 6.73614 4.89525
thorax -2.53319 3.05839 5.62109
lowerneck -16.1648 -4.61494 -2.39309
upperneck 18.7066 -3.876 -8.37884
head 8.39227 -2.82831 -2.87996
rclavicle -1.59028e-015 1.98785e-014
rhumerus -6.19614 17.3093 -68.6058
rradius 49.2622
rwrist -17.7696
rhand -28.1747 13.7868
rfingers 7.12502
rthumb -1.5546 -16.1873
lclavicle -1.59028e-015 1.98785e-014
lhumerus 3.27843 -62.4672 72.7432
lradius 53.0686
lwrist -10.7653
lhand -35.6582 9.65664
lfingers 7.12502
lthumb -8.77998 39.454
rfemur -55.9829 -10.7811 25.1468
rtibia 53.5531
rfoot -18.3648 -10.4469
rtoes -2.4036
lfemur -63.1302 6.01713 -18.23
ltibia 40.1597
lfoot -3.9316 -17.6569
ltoes -11.2595
376
root 1.03239 17.0883 -4.09501 26.8196 2.17123 -1.51972
lowerback 24.9623 5.64013 -3.74173
upperback 11.1 6.5503 4.76596
thorax -2.49021 2.97969 5.54686
lowerneck -16.2687 -4.45803 -2.10364
upperneck 19.134 -3.68735 -8.43854
head 8.55295 -2.73736 -2.94336
rclavicle 4.45278e-014 -1.59028e-015
rhumerus -7.20679 16.8415 -69.4506
rradius 49.0059
rwrist -17.4309
rhand -28.4536 13.4544
rfingers 7.12502
rthumb -1.82403 -16.5176
lclavicle 4.45278e-014 -1.59028e-015
lhumerus 2.66734 -62.4377 73.4629
lradius 52.1932
lwrist -10.7439
lhand -35.2133 9.56568
lfingers 7.12502
lthumb -8.35061 39.3806
rfemur -55.1942 -10.8151 25.24
rtibia 53.3728
rfoot -18.3874 -10.5577
rtoes -1.97422
lfemur -62.2848 5.84993 -17.8102
ltibia 39.8833
lfoot -3.78419 -17.5231
ltoes -11.2146
377
root 0.977333 17.1127 -4.10924 25.8781 2.03926 -1.66262
lowerback 24.6846 5.60962 -3.82484
upperback 10.9499 6.50416 4.65359
thorax -2.513 2.96402 5.49419
lowerneck -16.3264 -4.28689 -1.88501
upperneck 19.6565 -3.45377 -8.50929
head 8.74316 -2.6321 -2.99581
rclavicle 6.36111e-015 -1.03368e-014
rhumerus -8.18243 16.5428 -70.2071
rradius 48.7423
rwrist -17.1818
rhand -28.9313 13.0694
rfingers 7.12502
rthumb -2.28533 -16.8981
lclavicle 6.36111e-015 -1.03368e-014
lhumerus 1.92264 -62.409 74.2952
lradius 51.259
lwrist -10.8697
lhand -34.9499 9.43953
lfingers 7.12502
lthumb -8.09641 39.2644
rfemur -54.022 -10.7055 25.3696
rtibia 53.109
rfoot -18.4189 -10.5124
rtoes -1.49702
lfemur -61.0196 5.93851 -17.2936
ltibia 39.5579
lfoot -3.8364 -17.3075
ltoes -11.6452
378
root 0.923024 17.1343 -4.12119 24.973 1.98008 -1.71645
lowerback 24.2882 5.51293 -3.90534
upperback 10.8038 6.37979 4.53165
thorax -2.46222 2.90981 5.45974
lowerneck -16.334 -4.09758 -1.6723
upperneck 20.1623 -3.1924 -8.60072
head 8.92136 -2.51509 -3.04911
rclavicle 8.74653e-014 5.56597e-015
rhumerus -9.20747 16.359 -70.945
rradius 48.5669
rwrist -16.8168
rhand -29.5711 12.656
rfingers 7.12502
rthumb -2.90326 -17.304
lclavicle 8.74653e-014 5.56597e-015
lhumerus 1.19406 -62.3679 75.163
lradius 50.1984
lwrist -11.0269
lhand -34.7372 9.22633
lfingers 7.12502
lthumb -7.89117 39.059
rfemur -52.8614 -10.6519 25.4253
rtibia 52.8223
rfoot -18.4221 -10.5798
rtoes -1.55129
lfemur -59.7841 5.98849 -16.9051
ltibia 39.1963
lfoot -3.68653 -17.1447
ltoes -11.7625
379
root 0.868632 17.1476 -4.13553 24.2278 1.99969 -1.72984
lowerback 23.6678 5.36948 -4.01687
upperback 10.6848 6.20057 4.44976
thorax -2.27187 2.82473 5.51648
lowerneck -16.38 -3.92451 -1.51604
upperneck 20.5289 -2.95803 -8.64385
head 9.06149 -2.40805 -3.07628
rclavicle 2.38542e-014 1.43125e-014
rhumerus -10.0773 16.1601 -71.5575
rradius 48.468
rwrist -16.5707
rhand -29.7967 12.1951
rfingers 7.12502
rthumb -3.12108 -17.7618
lclavicle 2.38542e-014 1.43125e-014
lhumerus 0.711883 -62.2382 75.936
lradius 49.0449
lwrist -11.1566
lhand -34.3909 9.00198
lfingers 7.12502
lthumb -7.5569 38.847
rfemur -51.893 -10.4874 25.4231
rtibia 52.542
rfoot -18.4567 -10.7625
rtoes -1.13827
lfemur -58.7964 5.98011 -16.5633
ltibia 38.8661
lfoot -3.41049 -17.0152
ltoes -11.5291
380
root 0.813571 17.1596 -4.14951 23.5567 2.06975 -1.74959
lowerback 23.0075 5.21425 -4.1132
upperback 10.5544 6.01333 4.39654
thorax -2.0727 2.73524 5.59796
lowerneck -16.5853 -3.78967 -1.51255
upperneck 21.0306 -2.75119 -8.54745
head 9.28385 -2.3161 -3.043
rclavicle 2.8625e-014 7.95139e-016
rhumerus -10.7275 15.8381 -72.0799
rradius 48.2182
rwrist -16.5613
rhand -29.6832 11.7718
rfingers 7.12502
rthumb -3.01152 -18.1867
lclavicle 2.8625e-014 7.95139e-016
lhumerus 0.210285 -61.9609 76.8139
lradius 47.9072
lwrist -11.2731
lhand -33.9217 8.83965
lfingers 7.12502
lthumb -7.10403 38.7004
rfemur -51.0174 -10.3589 25.4719
rtibia 52.2722
rfoot -18.4748 -10.9506
rtoes -0.869278
lfemur -57.944 5.90201 -16.1886
ltibia 38.5825
lfoot -3.45576 -16.9487
ltoes -11.7404
381
root 0.758074 17.1734 -4.16339 22.8707 2.11575 -1.80465
lowerback 22.4936 5.09213 -4.17948
upperback 10.3531 5.86906 4.33361
thorax -2.02256 2.67151 5.62648
lowerneck -16.7941 -3.65316 -1.58661
upperneck 21.6333 -2.53655 -8.35541
head 9.54725 -2.21803 -2.96537
rclavicle -7.95139e-015 -2.62396e-014
rhumerus -11.4694 15.4612 -72.6083
rradius 47.921
rwrist -16.4078
rhand -29.664 11.2948
rfingers 7.12502
rthumb -2.99299 -18.6639
lclavicle -7.95139e-015 -2.62396e-014
lhumerus -0.561563 -61.7343 77.793
lradius 47.0062
lwrist -11.3497
lhand -33.4533 8.74775
lfingers 7.12502
lthumb -6.65187 38.6233
rfemur -50.1244 -10.2441 25.5846
rtibia 51.982
rfoot -18.429 -11.2021
rtoes -1.08471
lfemur -57.0787 5.89265 -15.811
ltibia 38.3251
lfoot -3.54633 -16.946
ltoes -11.9929
382
root 0.704253 17.1896 -4.17586 22.169 2.07719 -1.93784
lowerback 21.9953 5.01188 -4.2406
upperback 10.166 5.77773 4.27963
thorax -1.9699 2.63267 5.64677
lowerneck -16.9575 -3.50214 -1.46796
upperneck 22.054 -2.33588 -8.31129
head 9.73254 -2.12309 -2.96413
rclavicle 2.38542e-015 -1.27222e-014
rhumerus -12.2132 15.2038 -73.0536
rradius 47.5801
rwrist -16.0987
rhand -29.6687 10.895
rfingers 7.12502
rthumb -2.99751 -19.0636
lclavicle 2.38542e-015 -1.27222e-014
lhumerus -1.27572 -61.61 78.5836
lradius 46.3026
lwrist -11.4025
lhand -32.9613 8.7346
lfingers 7.12502
lthumb -6.17687 38.6245
rfemur -49.1877 -10.0391 25.7355
rtibia 51.6578
rfoot -18.3616 -11.4323
rtoes -1.11342
lfemur -56.151 5.96673 -15.3791
ltibia 38.0521
lfoot -3.48235 -16.8519
ltoes -11.8484
383
root 0.6515 17.205 -4.18474 21.435 2.08618 -2.06413
lowerback 21.4635 4.86847 -4.2382
upperback 10.0286 5.6182 4.22713
thorax -1.83054 2.55871 5.65331
lowerneck -17.1188 -3.34064 -1.3277
upperneck 22.3888 -2.12152 -8.31695
head 9.88803 -2.02412 -2.97873
rclavicle -1.66979e-014 8.74653e-015
rhumerus -12.7804 15.021 -73.4377
rradius 47.0948
rwrist -15.6581
rhand -29.4722 10.4732
rfingers 7.12502
rthumb -2.80773 -19.4881
lclavicle -1.66979e-014 8.74653e-015
lhumerus -1.84403 -61.3856 79.3109
lradius 45.4251
lwrist -11.5652
lhand -32.5179 8.49312
lfingers 7.12502
lthumb -5.74881 38.3951
rfemur -48.1852 -9.9194 25.894
rtibia 51.3234
rfoot -18.2791 -11.6382
rtoes -1.50373
lfemur -55.1593 5.91132 -14.8827
ltibia 37.7269
lfoot -3.38786 -16.6491
ltoes -11.5051
384
root 0.597088 17.2196 -4.19149 20.6834 2.15423 -2.11532
lowerback 20.9685 4.69629 -4.21358
upperback 9.87222 5.4231 4.14275
thorax -1.7193 2.4693 5.61697
lowerneck -17.211 -3.1948 -1.3051
upperneck 22.7362 -1.92872 -8.19761
head 10.0387 -1.9295 -2.93037
rclavicle 3.10104e-014 -3.18055e-015
rhumerus -13.2827 14.6578 -73.8592
rradius 46.5466
rwrist -15.2351
rhand -29.1255 10.176
rfingers 7.12502
rthumb -2.47292 -19.7894
lclavicle 3.10104e-014 -3.18055e-015
lhumerus -2.37782 -61.3052 79.9881
lradius 44.4492
lwrist -11.8213
lhand -32.2143 8.34057
lfingers 7.12502
lthumb -5.45565 38.2503
rfemur -47.1558 -9.84176 25.9848
rtibia 50.9909
rfoot -18.2682 -11.8382
rtoes -1.39469
lfemur -54.126 5.82303 -14.4719
ltibia 37.3373
lfoot -3.29282 -16.5057
ltoes -11.4842
385
root 0.542711 17.2389 -4.19868 20.0032 2.19398 -2.11242
lowerback 20.4136 4.57146 -4.28288
upperback 9.70832 5.27411 4.06632
thorax -1.59861 2.39979 5.63294
lowerneck -17.2233 -3.0776 -1.19346
upperneck 22.9432 -1.79578 -8.15265
head 10.119 -1.85915 -2.9234
rclavicle -2.78299e-014 -2.14687e-014
rhumerus -13.7375 14.1972 -74.2101
rradius 45.953
rwrist -15.0976
rhand -28.9442 10.7647
rfingers 7.12502
rthumb -2.2978 -19.2026
lclavicle -2.78299e-014 -2.14687e-014
lhumerus -2.94431 -61.3049 80.6842
lradius 43.6178
lwrist -12.1215
lhand -31.9258 8.43758
lfingers 7.12502
lthumb -5.17707 38.3543
rfemur -46.1912 -9.69355 25.9823
rtibia 50.6548
rfoot -18.508 -11.8427
rtoes 0.80519
lfemur -53.1315 5.8345 -14.2135
ltibia 36.8825
lfoot -3.24627 -16.4534
ltoes -11.8755
